
        <svg xmlns="http://www.w3.org/2000/svg" xmlns:xlink="http://www.w3.org/1999/xlink" version="1.1" width="3203.349824927218" 
        height="3253.6785177459406" viewBox="0 0 3203.349824927218 3253.6785177459406">
			
			<g transform="scale(12.683925887297018) translate(10, 10)">
				<defs id="SvgjsDefs1854"></defs><g id="SvgjsG1855" featureKey="monogramFeature-0" transform="matrix(4.5488552211176385,0,0,4.5488552211176385,33.35843619637871,-82.01130772748893)" fill="#3fbac2"><path d="M33.566 18.029000000000003 l0.000058594 42 l-10.745 -21.49 c-0.20824 0.053086 -0.41648 0.10676 -0.62706 0.15287 c-1.3131 0.28816 -2.6676 0.43459 -4.025 0.43459 c-1.5056 0 -3.0007 -0.18434 -4.4491 -0.53842 l-10.721 21.441 l0 -42 l1.1667 0 l0 37.057 l14.117 -28.234 l14.117 28.234 l0 -37.057 l1.1667 0 z M21.944 37.553 c0.1149 -0.025664 0.22805 -0.056602 0.34237 -0.083436 l-4.0034 -8.007 l-4.0262 8.052 c2.5089 0.57106 5.1765 0.58916 7.6872 0.038496 z"></path></g><g id="SvgjsG1856" featureKey="nameFeature-0" transform="matrix(0.8818185305171631,0,0,0.8818185305171631,-1.67671747945253,200.71799943259543)" fill="#f5f5f5"><path d="M36.38 12 c0.44 0 0.58 0.28 0.48 0.68 l-7.14 26.84 c-0.08 0.32 -0.4 0.48 -0.72 0.48 l-1.92 0 c-0.32 0 -0.64 -0.16 -0.74 -0.48 l-6.98 -23.1 l-6.98 23.1 c-0.1 0.32 -0.4 0.48 -0.72 0.48 l-1.94 0 c-0.32 0 -0.64 -0.16 -0.72 -0.48 l-7.06 -26.84 c-0.12 -0.42 0.04 -0.68 0.48 -0.68 l1.26 0 c0.32 0 0.6 0.12 0.68 0.48 l6.28 24.6 l7.44 -24.6 c0.06 -0.22 0.18 -0.34 0.32 -0.42 c0.08 -0.04 0.2 -0.06 0.32 -0.06 l1.3 0 c0.12 0 0.24 0.02 0.32 0.06 c0.14 0.08 0.26 0.2 0.32 0.42 l7.44 24.6 l6.34 -24.6 c0.1 -0.36 0.36 -0.48 0.68 -0.48 l1.26 0 z M67.3675 39.32 c0.16 0.4 -0.04 0.68 -0.48 0.68 l-1.26 0 c-0.32 0 -0.54 -0.12 -0.68 -0.48 l-2.3 -6.06 l-14.12 0 l-2.3 6.06 c-0.14 0.36 -0.36 0.48 -0.68 0.48 l-1.26 0 c-0.44 0 -0.64 -0.28 -0.48 -0.68 l10.32 -26.84 c0.12 -0.32 0.42 -0.48 0.74 -0.48 l1.48 0 c0.32 0 0.58 0.16 0.7 0.48 z M49.4275 31.14 l12.32 0 l-6.16 -16.2 z M82.235 12 c9.76 0 14.64 6.04 14.64 14 c0 7.94 -4.88 14 -14.64 14 l-5.86 0 c-0.36 0 -0.6 -0.24 -0.6 -0.6 l0 -26.8 c0 -0.36 0.24 -0.6 0.6 -0.6 l5.86 0 z M82.235 37.64 c8.1 0 12.1 -4.48 12.1 -11.64 c0 -7.18 -4 -11.64 -12.1 -11.64 l-3.96 0 l0 23.28 l3.96 0 z M123.1225 37.64 c0.36 0 0.6 0.24 0.6 0.6 l0 1.16 c0 0.36 -0.24 0.6 -0.6 0.6 l-16.9 0 c-0.36 0 -0.6 -0.24 -0.6 -0.6 l0 -26.8 c0 -0.36 0.24 -0.6 0.6 -0.6 l16.86 0 c0.36 0 0.6 0.24 0.6 0.6 l0 1.16 c0 0.36 -0.24 0.6 -0.6 0.6 l-14.96 0 l0 9.62 l13.86 0 c0.36 0 0.6 0.24 0.6 0.6 l0 1.16 c0 0.36 -0.24 0.6 -0.6 0.6 l-13.86 0 l0 11.3 l15 0 z M141.99 24.46 c5.52 1.18 10.26 2.7 10.26 8.52 c0 4.26 -3.06 7.62 -10.14 7.62 c-5.84 0 -9.66 -2.24 -10.04 -6.38 c-0.04 -0.4 0.2 -0.74 0.56 -0.74 l1.36 0 c0.36 0 0.58 0.3 0.6 0.62 c0.26 2.54 3.06 4.2 7.52 4.2 c4.96 0 7.66 -1.74 7.66 -5.36 c0 -4.3 -3.32 -4.96 -7.78 -6.06 c-5.12 -1.26 -9.18 -2.84 -9.18 -8.16 c0 -4.22 3.02 -7.06 9 -7.06 c5.64 0 9.16 2.18 9.58 6.3 c0.04 0.4 -0.2 0.56 -0.56 0.56 l-1.26 0 c-0.36 0 -0.58 -0.12 -0.6 -0.44 c-0.26 -2.44 -2.92 -4.18 -7.18 -4.18 c-3.92 0 -6.6 1.58 -6.6 4.82 c0 3.42 2.7 4.84 6.8 5.74 z M179.8975 14.36 l-8 0 l0 23.28 l8 0 c0.36 0 0.6 0.24 0.6 0.6 l0 1.16 c0 0.36 -0.24 0.6 -0.6 0.6 l-18.5 0 c-0.36 0 -0.6 -0.24 -0.6 -0.6 l0 -1.16 c0 -0.36 0.24 -0.6 0.6 -0.6 l8 0 l0 -23.28 l-8 0 c-0.36 0 -0.6 -0.24 -0.6 -0.6 l0 -1.16 c0 -0.36 0.24 -0.6 0.6 -0.6 l18.5 0 c0.36 0 0.6 0.24 0.6 0.6 l0 1.16 c0 0.36 -0.24 0.6 -0.6 0.6 z M209.645 12 c0.36 0 0.6 0.24 0.6 0.6 l0 1.16 c0 0.36 -0.24 0.6 -0.6 0.6 l-8.9 0 l0 25.04 c0 0.36 -0.24 0.6 -0.6 0.6 l-1.3 0 c-0.36 0 -0.6 -0.24 -0.6 -0.6 l0 -25.04 l-8.9 0 c-0.36 0 -0.6 -0.24 -0.6 -0.6 l0 -1.16 c0 -0.36 0.24 -0.6 0.6 -0.6 l20.3 0 z M236.4925 37.64 c0.36 0 0.6 0.24 0.6 0.6 l0 1.16 c0 0.36 -0.24 0.6 -0.6 0.6 l-16.9 0 c-0.36 0 -0.6 -0.24 -0.6 -0.6 l0 -26.8 c0 -0.36 0.24 -0.6 0.6 -0.6 l16.86 0 c0.36 0 0.6 0.24 0.6 0.6 l0 1.16 c0 0.36 -0.24 0.6 -0.6 0.6 l-14.96 0 l0 9.62 l13.86 0 c0.36 0 0.6 0.24 0.6 0.6 l0 1.16 c0 0.36 -0.24 0.6 -0.6 0.6 l-13.86 0 l0 11.3 l15 0 z M255.36 24.46 c5.52 1.18 10.26 2.7 10.26 8.52 c0 4.26 -3.06 7.62 -10.14 7.62 c-5.84 0 -9.66 -2.24 -10.04 -6.38 c-0.04 -0.4 0.2 -0.74 0.56 -0.74 l1.36 0 c0.36 0 0.58 0.3 0.6 0.62 c0.26 2.54 3.06 4.2 7.52 4.2 c4.96 0 7.66 -1.74 7.66 -5.36 c0 -4.3 -3.32 -4.96 -7.78 -6.06 c-5.12 -1.26 -9.18 -2.84 -9.18 -8.16 c0 -4.22 3.02 -7.06 9 -7.06 c5.64 0 9.16 2.18 9.58 6.3 c0.04 0.4 -0.2 0.56 -0.56 0.56 l-1.26 0 c-0.36 0 -0.58 -0.12 -0.6 -0.44 c-0.26 -2.44 -2.92 -4.18 -7.18 -4.18 c-3.92 0 -6.6 1.58 -6.6 4.82 c0 3.42 2.7 4.84 6.8 5.74 z"></path></g>
			</g>
		</svg>
	